<?xml version="1.0" encoding="UTF-8"?>
<svg id="Ebene_2" data-name="Ebene 2" xmlns="http://www.w3.org/2000/svg" viewBox="0 0 616.99 619.01">
  <defs>
    <style>
      .cls-1 {
        fill: #5d17bf;
      }
    </style>
  </defs>
  <g id="Ebene_1" data-name="Ebene 1">
    <g>
      <path class="cls-1" d="M28.98,381.68c-32.42-32.36-39.06-92.92-12.68-130.31,44.8-63.51,120.38-21.41,166.58-56.95,62.84-48.33,5.52-112.58,47.11-160.16,40.3-46.1,119.39-46.28,157.35,3.07,37.35,48.55-13.17,108.51,44.39,152.54,49.81,38.11,133.19-1.66,170.49,66.41,64.73,118.1-100.09,212.3-170.06,112.27-26.61-38.05-11.89-76.6-34.48-114.13-39.45-65.54-132.54-67.71-176.83-4.9-21.69,30.76-12.71,64.33-24.53,96.78-24.4,66.96-117.48,85.15-167.34,35.38Z"/>
      <path class="cls-1" d="M235.39,587.87c-93.28-93.13,46.86-238.02,143.09-147.49,99.56,93.67-46.38,244.04-143.09,147.49Z"/>
    </g>
  </g>
</svg>